<?xml version="1.0" encoding="UTF-8"?>
<svg version="1.1" xmlns="http://www.w3.org/2000/svg" width="1024" height="1024">
<path d="M0 0 C337.92 0 675.84 0 1024 0 C1024 337.92 1024 675.84 1024 1024 C686.08 1024 348.16 1024 0 1024 C0 686.08 0 348.16 0 0 Z " fill="#FDFEFE" transform="translate(0,0)"/>
<path d="M0 0 C0.78105103 0.00104736 1.56210205 0.00209473 2.36682129 0.00317383 C15.0511555 0.03818656 27.06535183 1.20116058 39.375 4.4375 C37.94962143 7.66979787 36.19272053 9.8398259 33.75 12.375 C25.8623958 21.11685736 20.72561451 31.49849424 15.57421875 41.9765625 C2.23087675 69.10699736 2.23087675 69.10699736 -5.625 77.4375 C-6.223125 78.12457031 -6.82125 78.81164062 -7.4375 79.51953125 C-12.94834049 85.5240512 -19.54393853 89.49673536 -26.625 93.4375 C-27.36363281 93.85 -28.10226562 94.2625 -28.86328125 94.6875 C-42.09776652 101.26619559 -57.98301485 102.61748858 -72.5 102.5625 C-74.06621094 102.56830078 -74.06621094 102.56830078 -75.6640625 102.57421875 C-76.65921875 102.57292969 -77.654375 102.57164062 -78.6796875 102.5703125 C-79.58187012 102.56918457 -80.48405273 102.56805664 -81.41357422 102.56689453 C-83.625 102.4375 -83.625 102.4375 -85.625 101.4375 C-81.38424013 75.75469584 -59.40296182 52.35801816 -39.22875977 37.65161133 C-32.65438955 32.9640688 -26.09594649 28.59475503 -18.625 25.4375 C-45.0469629 31.31526717 -67.65910793 47.84184757 -82.20800781 70.60473633 C-92.70199435 87.71011362 -97.92008495 105.00613752 -98.0625 125.0625 C-98.0728125 126.26559814 -98.083125 127.46869629 -98.09375 128.70825195 C-97.98093983 140.19843803 -95.84875045 150.77755839 -91.625 161.4375 C-91.625 162.4275 -91.625 163.4175 -91.625 164.4375 C-95.14581558 164.46677632 -98.66659939 164.48439119 -102.1875 164.5 C-103.6734668 164.51256836 -103.6734668 164.51256836 -105.18945312 164.52539062 C-110.45048699 164.54286914 -115.44264665 164.36058398 -120.625 163.4375 C-117.625 151.4375 -117.625 151.4375 -116.86328125 148.78833008 C-114.79428083 141.29251398 -114.14991221 134.38498596 -114.25 126.625 C-114.25942627 125.48571045 -114.26885254 124.3464209 -114.27856445 123.17260742 C-114.43199638 114.58347616 -115.23545448 106.72382719 -117.625 98.4375 C-117.9653125 97.22578125 -118.305625 96.0140625 -118.65625 94.765625 C-125.66332537 71.94528494 -138.67566038 48.96418579 -159.625 36.4375 C-167.78106576 31.65195963 -167.78106576 31.65195963 -176.625 29.4375 C-175.77679688 29.99695313 -174.92859375 30.55640625 -174.0546875 31.1328125 C-151.82151215 46.17356042 -135.1985971 67.4281731 -127.625 93.4375 C-127.625 94.0975 -127.625 94.7575 -127.625 95.4375 C-150.99050448 96.16767201 -172.02817168 92.43750424 -189.8125 75.875 C-199.86275803 65.20845256 -204.50765227 52.28946074 -209.50561523 38.73876953 C-213.52660289 28.01264079 -218.35109242 18.28328504 -226.33984375 9.9609375 C-227.625 8.4375 -227.625 8.4375 -227.625 6.4375 C-219.79704138 4.31495157 -212.33855091 4.05130689 -204.25 4.0625 C-203.25622345 4.06331573 -203.25622345 4.06331573 -202.24237061 4.06414795 C-190.95030241 4.10666967 -180.43597705 5.12179493 -169.625 8.4375 C-168.92777832 8.64648926 -168.23055664 8.85547852 -167.51220703 9.07080078 C-147.46929504 15.28619858 -130.67203219 27.78275764 -120.625 46.4375 C-115.24011507 56.73521825 -113.28613131 66.8278046 -113.25 78.375 C-113.07239659 87.42371937 -112.3335554 94.51461711 -107.625 102.4375 C-102.20718715 94.73327072 -101.15298376 88.27361494 -101 79.0625 C-100.62746097 58.76156312 -93.40242534 42.50982175 -79.12890625 27.87890625 C-57.68416909 7.43015108 -28.97007993 -0.21810887 0 0 Z " fill="#8CBA40" transform="translate(597.625,302.5625)"/>
<path d="M0 0 C5 8.75 5 8.75 5 11 C4.14341797 11.05160278 4.14341797 11.05160278 3.26953125 11.10424805 C-52.29212746 14.66518504 -105.26192905 36.05509702 -145.61181641 74.67919922 C-146.77164751 75.7827318 -147.9518289 76.86482443 -149.13671875 77.94140625 C-166.90291878 94.59023521 -180.18040718 117.97438092 -187.25 141.0625 C-187.4965332 141.86534424 -187.74306641 142.66818848 -187.99707031 143.49536133 C-191.3487232 154.95843143 -192.35018912 166.14247482 -192.31567383 178.03491211 C-192.31251859 180.29915827 -192.33604891 182.5620864 -192.36132812 184.82617188 C-192.50289956 217.2577182 -178.69184096 248.48993431 -158 273 C-157.16210938 273.99257813 -156.32421875 274.98515625 -155.4609375 276.0078125 C-149.83666102 282.4177022 -143.79261528 287.85625176 -137 293 C-136.47954102 293.39541992 -135.95908203 293.79083984 -135.42285156 294.19824219 C-101.20060897 319.99277172 -59.33871263 334.87901461 -16.375 335.23828125 C-14.9097438 335.25310799 -14.9097438 335.25310799 -13.41488647 335.26823425 C49.28005814 335.77212895 108.27052726 319.52821423 158 280 C158.55993652 279.55720703 159.11987305 279.11441406 159.69677734 278.65820312 C173.11732444 267.94753548 185.61810676 255.68348796 196 242 C196.40992188 241.47712402 196.81984375 240.95424805 197.2421875 240.41552734 C209.96972334 224.17191559 219.71933959 206.2825682 227 187 C227.28069336 186.278125 227.56138672 185.55625 227.85058594 184.8125 C242.40076349 146.97175555 242.82512726 100.43130893 226.3125 63.1875 C225.72893924 61.90847138 225.14191976 60.63101281 224.55078125 59.35546875 C223.2750797 56.59519764 222.09618589 53.8349635 221 51 C225.08818615 54.74391784 227.74063286 58.51762775 230.375 63.375 C230.95580322 64.43871826 230.95580322 64.43871826 231.54833984 65.52392578 C232.71137682 67.67619058 233.85601531 69.83756522 235 72 C235.62390625 73.1446875 236.2478125 74.289375 236.890625 75.46875 C246.50081527 94.34281738 250.22832547 115.26877436 250.25 136.25 C250.25133942 137.01055695 250.25267883 137.77111389 250.25405884 138.55471802 C250.23724447 182.531253 232.12420669 225.17402499 203 258 C202.21753906 258.89074219 201.43507813 259.78148437 200.62890625 260.69921875 C196.86796364 264.92950723 193.01494301 269.00961321 189 273 C188.17242188 273.85078125 187.34484375 274.7015625 186.4921875 275.578125 C180.3346709 281.86430613 173.97872743 287.62186128 167 293 C166.35627441 293.50370117 165.71254883 294.00740234 165.04931641 294.52636719 C145.66649681 309.61724489 124.6854123 321.61046126 102 331 C101.06784668 331.39026367 100.13569336 331.78052734 99.17529297 332.18261719 C76.0444653 341.7406802 51.87364539 347.43591277 27 350 C26.20779053 350.0942627 25.41558105 350.18852539 24.59936523 350.28564453 C16.34657706 351.18215395 8.1043697 351.15148135 -0.1862793 351.13037109 C-2.66526512 351.12504775 -5.1440668 351.13032519 -7.62304688 351.13671875 C-22.19027118 351.14515369 -36.51866655 350.65754327 -50.875 347.9375 C-52.58804321 347.61422729 -52.58804321 347.61422729 -54.33569336 347.28442383 C-73.31455363 343.51781597 -91.67702296 337.63933637 -109 329 C-109.73041504 328.6376123 -110.46083008 328.27522461 -111.21337891 327.90185547 C-129.57480392 318.6991652 -146.05198853 307.08893035 -161 293 C-162.16208984 291.95199219 -162.16208984 291.95199219 -163.34765625 290.8828125 C-187.51394289 268.17043253 -200.97596641 237.32238336 -206.421875 205.09765625 C-206.83350109 202.10339244 -206.83350109 202.10339244 -208 200 C-209.38164118 180.28625398 -207.94699244 161.14896862 -203 142 C-202.71165283 140.88286621 -202.71165283 140.88286621 -202.41748047 139.74316406 C-197.64057385 122.11257931 -188.46787023 105.8291714 -178 91 C-177.38680908 90.12214844 -177.38680908 90.12214844 -176.76123047 89.2265625 C-165.00446784 72.65348908 -149.59795117 57.68802334 -133 46 C-132.40944824 45.58105469 -131.81889648 45.16210938 -131.21044922 44.73046875 C-99.99060923 22.78458707 -65.0784618 9.17390112 -27.6875 2.1875 C-26.5432959 1.96811768 -25.3990918 1.74873535 -24.22021484 1.52270508 C-16.08436725 0.07392762 -8.25478409 -0.2459337 0 0 Z " fill="#2E7EBA" transform="translate(472,240)"/>
<path d="M0 0 C0.33 0 0.66 0 1 0 C1.19048812 7.07003999 0.50937966 13.71278218 -0.625 20.6875 C-0.8890564 22.31594849 -0.8890564 22.31594849 -1.15844727 23.97729492 C-3.74260639 39.15026848 -7.5292676 54.0003189 -14 68 C-14.64481102 69.49745937 -15.28645278 70.99628545 -15.92578125 72.49609375 C-26.2776792 96.52711699 -39.97003493 117.98658229 -58 137 C-59.10995024 138.30761261 -60.21446892 139.61986271 -61.3125 140.9375 C-94.95292913 179.33910355 -146.25937049 202.09976628 -196 209 C-196.7724707 209.10763672 -197.54494141 209.21527344 -198.34082031 209.32617188 C-223.75400625 212.34663604 -250.12768511 210.67243379 -275 205 C-276.44729492 204.67104736 -276.44729492 204.67104736 -277.92382812 204.33544922 C-317.84885497 194.86496044 -360.99051387 171.51185766 -387 139 C-383.04717937 140.43309433 -379.45442951 142.3239405 -375.77124023 144.32543945 C-360.4457166 152.63697917 -345.04310939 159.23843549 -328.11279297 163.46630859 C-326.12202137 163.96917741 -324.14064195 164.50881721 -322.16015625 165.05078125 C-279.18633505 176.53707608 -233.02571142 175.90020634 -190 165 C-188.10507812 164.55720703 -188.10507812 164.55720703 -186.171875 164.10546875 C-146.10124496 154.26750016 -108.81101042 135.13496339 -77 109 C-76.14390137 108.30052246 -76.14390137 108.30052246 -75.27050781 107.58691406 C-61.93480832 96.62802283 -49.56485946 84.67912773 -39 71 C-38.2265625 70.04351562 -37.453125 69.08703125 -36.65625 68.1015625 C-20.39742068 47.67512187 -8.48034368 24.65382615 0 0 Z " fill="#297EBA" transform="translate(726,429)"/>
<path d="M0 0 C0 0.99 0 1.98 0 3 C-0.93158936 3.10546143 -1.86317871 3.21092285 -2.82299805 3.31958008 C-6.34439996 3.72185763 -9.86489261 4.13087507 -13.38500977 4.54418945 C-14.8964251 4.72031558 -16.40813901 4.89390187 -17.92016602 5.06469727 C-27.45925811 6.14429581 -36.68111579 7.61455787 -46 10 C-47.34097232 10.31973898 -48.68208903 10.63887392 -50.0234375 10.95703125 C-71.75591506 16.50413217 -94.31303525 25.47799152 -107 45 C-109.65192023 50.30384046 -108.73881493 58.26713864 -107.234375 63.83203125 C-100.75750343 78.31376875 -84.39360154 86.19455451 -70.37182617 91.81298828 C-62.32300898 94.86097043 -54.09767173 97.17528817 -45.75 99.25 C-44.82453369 99.48420654 -43.89906738 99.71841309 -42.94555664 99.9597168 C-24.37747448 104.32140981 -5.73338104 105.47698483 13.28051758 105.33618164 C16.69571431 105.3124429 20.11013115 105.31567293 23.52539062 105.32226562 C41.38854946 105.30101797 58.91779169 104.4033773 76.375 100.375 C77.50711914 100.11702637 78.63923828 99.85905273 79.80566406 99.59326172 C98.87953659 95.06141227 119.37327933 88.60625178 134 75 C134.66 75 135.32 75 136 75 C136.3403125 74.2265625 136.3403125 74.2265625 136.6875 73.4375 C137.83463939 71.30709827 139.05245472 69.55079033 140.5 67.625 C144.89000023 61.49971945 145.91085801 55.42522229 145 48 C141.56172222 36.71750766 131.79986745 29.63790102 122.00048828 24.06396484 C116.53804634 21.15875103 110.8103479 18.90271994 105.01708984 16.75244141 C103.22641044 16.0844586 101.44986599 15.37885347 99.67578125 14.66796875 C79.41100379 7.11364342 56.45325269 4.30565441 35 3 C35 2.01 35 1.02 35 0 C44.10075965 -0.30368001 52.98739878 0.61680272 62 1.75 C63.09781296 1.88687729 63.09781296 1.88687729 64.21780396 2.02651978 C97.08195755 6.1587997 136.22130669 14.25453726 158.53125 40.984375 C164.34586587 48.96400741 166.21809457 57.19723893 165 67 C158.33412567 85.93661877 141.67914672 95.56403339 124.48339844 103.85400391 C86.76259776 121.26075168 43.89202054 123.71379562 3 123 C2.12214844 122.99129883 1.24429688 122.98259766 0.33984375 122.97363281 C-38.63781098 122.50186654 -89.21078675 113.1534893 -118 85 C-125.0924887 76.75292011 -129.8365144 69.0046837 -129.46875 57.92578125 C-127.44616496 45.30147963 -117.88034262 35.5737165 -107.9375 28.375 C-88.55643139 15.38821147 -65.84030585 8.08003924 -43 4 C-41.50267334 3.72929687 -41.50267334 3.72929687 -39.97509766 3.453125 C-26.58346087 1.08412785 -13.60965701 -0.68237835 0 0 Z " fill="#2C7FBB" transform="translate(474,421)"/>
<path d="M0 0 C9.9740218 5.96090529 17.05053925 14.69589934 20 26 C21.57734882 38.59314259 19.28469637 50.3675235 11.875 60.9375 C7.21628342 66.42739729 0.82983118 70.72338961 -6 73 C-6 73.66 -6 74.32 -6 75 C-2.30124601 77.46583599 1.71045066 77.82276272 6 77 C8.04344995 75.85678336 9.76110226 74.59535625 11.5546875 73.09375 C13 72 13 72 15 72 C16.43581474 73.61457079 17.80144783 75.29219075 19.125 77 C19.84945312 77.928125 20.57390625 78.85625 21.3203125 79.8125 C21.87460937 80.534375 22.42890625 81.25625 23 82 C21.55767936 85.57478396 19.83879097 87.11081448 16.625 89.1875 C15.85414063 89.69667969 15.08328125 90.20585938 14.2890625 90.73046875 C8.12693818 94.14802917 0.8339121 93.72123837 -6 93 C-15.06030604 90.26134118 -21.55368764 84.64684261 -27 77 C-27 76.34 -27 75.68 -27 75 C-27.94875 75.0825 -28.8975 75.165 -29.875 75.25 C-39.82440761 75.18982213 -47.80421618 68.90056883 -54.71875 62.37890625 C-62.99370407 53.57621276 -65.35574694 42.80492745 -65.2109375 31.08984375 C-64.45727663 20.05010766 -58.87443069 11.10283731 -50.98828125 3.56640625 C-36.7351433 -7.66249025 -15.69031378 -8.61830279 0 0 Z " fill="#2E81BE" transform="translate(539,672)"/>
<path d="M0 0 C0.94672577 -0.0033284 1.89345154 -0.0066568 2.86886597 -0.01008606 C4.86048909 -0.01511505 6.85212053 -0.01749564 8.84375 -0.01733398 C11.83868848 -0.01951054 14.8332519 -0.03768262 17.828125 -0.05664062 C60.46228134 -0.18500086 98.18958171 13.11100598 134.7421875 34.16796875 C134.7421875 34.82796875 134.7421875 35.48796875 134.7421875 36.16796875 C128.91160263 36.41848965 123.08426241 36.5981308 117.24951172 36.71728516 C115.2727187 36.76703397 113.29628291 36.83486491 111.32080078 36.92236328 C97.55257695 37.5161223 88.49730602 36.07240456 77.50102234 27.50949097 C75.01817851 25.61574285 72.42040353 23.91382182 69.81225586 22.19888306 C68.10681538 21.07725212 66.41844051 19.93283291 64.73046875 18.78515625 C64.12565674 18.39424805 63.52084473 18.00333984 62.89770508 17.60058594 C61.22557214 16.48923968 59.59480873 15.31553161 57.9831543 14.11816406 C48.83545086 7.74578202 41.79745638 7.01318873 30.9296875 7.16796875 C29.44724152 7.15985287 27.96481069 7.14815375 26.48242188 7.1328125 C22.90156844 7.10337642 19.32296127 7.12187673 15.7421875 7.16796875 C20.63237995 13.16720028 25.53059051 19.15523775 30.5546875 25.04296875 C32.29050396 27.07926273 34.01852568 29.12128999 35.7421875 31.16796875 C36.89267578 32.53308594 36.89267578 32.53308594 38.06640625 33.92578125 C39.7421875 36.16796875 39.7421875 36.16796875 39.7421875 38.16796875 C18.00357008 39.65105469 18.00357008 39.65105469 11.8046875 34.48046875 C10.44654531 33.04672421 9.09264209 31.60895661 7.7421875 30.16796875 C2.04335555 24.58763233 -3.46774271 24.39863953 -11.1953125 24.35546875 C-12.26072266 24.33033203 -13.32613281 24.30519531 -14.42382812 24.27929688 C-17.03476371 24.22075572 -19.64632599 24.19141883 -22.2578125 24.16796875 C-20.6078125 28.12796875 -18.9578125 32.08796875 -17.2578125 36.16796875 C-18.88847656 36.34972656 -20.51914062 36.53148437 -22.19921875 36.71875 C-49.72368741 39.85137608 -76.55196065 45.57041883 -102.2578125 56.16796875 C-103.06379883 56.50022461 -103.86978516 56.83248047 -104.70019531 57.17480469 C-126.06394668 66.11873961 -146.85500023 77.75909002 -164.2578125 93.16796875 C-164.9178125 92.83796875 -165.5778125 92.50796875 -166.2578125 92.16796875 C-159.44778406 82.96237721 -152.2009419 74.41398202 -144.2578125 66.16796875 C-143.75459473 65.64283691 -143.25137695 65.11770508 -142.73291016 64.57666016 C-106.27565992 26.71224684 -53.1678177 0.06704299 0 0 Z " fill="#2C7CB8" transform="translate(487.2578125,192.83203125)"/>
<path d="M0 0 C14.32313502 -1.93186698 22.49305617 2.89942375 34 11 C36.97695961 12.97293786 39.95996332 14.93569745 42.95068359 16.88769531 C46 19 46 19 48.70556641 21.33837891 C60.14638034 30.3826687 72.15161436 28.86404392 86.125 28.25 C117.33819132 27.07296021 117.33819132 27.07296021 126.26220703 35.01269531 C128 37 128 37 128.4375 39.5625 C127.90766531 42.51443612 127.32212037 43.15248491 125 45 C116.73636589 48.14220141 108.15164534 48.19805845 99.44140625 48.125 C97.88212906 48.11605713 97.88212906 48.11605713 96.29135132 48.10693359 C91.95876524 48.07329493 87.62870436 48.03013724 83.29760742 47.90771484 C68.6815283 47.53161831 59.40827317 48.49270481 48.51370239 58.63458252 C46.35605165 60.58086605 44.00596476 62.16964044 41.58984375 63.77734375 C40.80802734 64.31037109 40.02621094 64.84339844 39.22070312 65.39257812 C38.46724609 65.90240234 37.71378906 66.41222656 36.9375 66.9375 C36.14923828 67.47439453 35.36097656 68.01128906 34.54882812 68.56445312 C33.03760052 69.59259375 31.52221337 70.61465772 30.00195312 71.62939453 C28.27736901 72.81010371 26.61393503 74.07923978 24.96484375 75.36328125 C21.03811644 77.53100028 18.02041271 77.45665593 13.625 77.25 C12.88894531 77.23195313 12.15289063 77.21390625 11.39453125 77.1953125 C9.59578264 77.14859176 7.79771289 77.07686183 6 77 C7.44022362 73.8257758 9.21369432 71.36438875 11.4375 68.6875 C16.89227637 61.98706568 21.92166586 54.98626401 27 48 C25.97342285 48.02094727 24.9468457 48.04189453 23.88916016 48.06347656 C19.98647688 48.13728481 16.08385125 48.18229669 12.18066406 48.21972656 C10.50900823 48.23952837 8.83741853 48.26657737 7.16601562 48.30175781 C-2.04648708 48.49044763 -10.81874795 48.19058532 -19.8515625 46.234375 C-20.58386078 46.07841858 -21.31615906 45.92246216 -22.07064819 45.76177979 C-26.68357681 44.65041038 -30.31378315 43.12327567 -34 40 C-34 38.68 -34 37.36 -34 36 C-34.60328959 32.05348058 -36.57963503 28.89651804 -38.5 25.4375 C-41.90051458 19.29845626 -41.90051458 19.29845626 -43 16 C-38.28031581 14.80733682 -34.1470891 14.74615439 -29.84277344 17.25976562 C-25.23110847 20.48379772 -20.89049805 24.04082586 -16.61303711 27.69311523 C-12.9376869 30.67088876 -9.22480301 30.12681412 -4.7109375 30.09765625 C-3.89251373 30.0962413 -3.07408997 30.09482635 -2.23086548 30.09336853 C0.38779325 30.0877629 3.00636704 30.07520948 5.625 30.0625 C7.39843627 30.05748572 9.17187387 30.05292269 10.9453125 30.04882812 C15.29690782 30.03779164 19.6484395 30.02052325 24 30 C18.47005861 23.19475167 12.87959291 16.46419347 7.08984375 9.87890625 C4.36245174 6.73632071 2.01832487 3.66593702 0 0 Z " fill="#2D7FBA" transform="translate(517,207)"/>
<path d="M0 0 C1.71509766 0.01353516 1.71509766 0.01353516 3.46484375 0.02734375 C4.32207031 0.03894531 5.17929687 0.05054688 6.0625 0.0625 C6.0625 1.0525 6.0625 2.0425 6.0625 3.0625 C5.36769531 3.14886719 4.67289062 3.23523438 3.95703125 3.32421875 C-10.91149342 5.37829884 -26.46858472 8.23578952 -39.9375 15.0625 C-40.81535156 15.50207031 -41.69320312 15.94164062 -42.59765625 16.39453125 C-48.80544394 19.79336524 -54.26643411 23.90777498 -57.9375 30.0625 C-59.05482653 34.33578394 -58.78305459 37.89631117 -57.1796875 42.00390625 C-50.09339651 53.73565467 -32.29085253 58.85967468 -19.87109375 62.1484375 C-18.56148551 62.45988687 -17.25020588 62.76437632 -15.9375 63.0625 C-15.2686377 63.21493164 -14.59977539 63.36736328 -13.91064453 63.52441406 C11.42776583 68.91457441 42.06016972 68.83212388 67.0625 62.0625 C67.79210937 61.87526367 68.52171875 61.68802734 69.2734375 61.49511719 C82.15103927 58.13043694 98.08430811 53.23771018 105.203125 41.12109375 C106.75107744 37.41304404 106.77455808 33.99176594 106.0625 30.0625 C101.58328486 20.34577738 90.8961277 16.01565545 81.50390625 12.28515625 C68.29041879 7.59069362 54.93097078 4.95365511 41.0625 3.0625 C41.0625 2.0725 41.0625 1.0825 41.0625 0.0625 C50.0201909 -0.21014134 58.39050329 0.43902128 67.1875 2.125 C68.94356567 2.45890747 68.94356567 2.45890747 70.73510742 2.79956055 C88.29808078 6.3265856 110.22823982 12.84049764 121.9609375 27.421875 C124.8711285 32.1336128 127.07952028 36.12764817 126.640625 41.7734375 C124.58814826 49.90013596 118.91945072 56.49811525 112.0625 61.0625 C106.88950012 64.05809298 101.50641128 66.60317739 96.0625 69.0625 C94.98742187 69.54976563 93.91234375 70.03703125 92.8046875 70.5390625 C53.74787801 86.82105725 1.89461962 85.27779911 -37.9375 73.0625 C-38.65615234 72.84223145 -39.37480469 72.62196289 -40.11523438 72.39501953 C-53.89451086 68.02311545 -67.50666173 61.26868617 -75.9375 49.0625 C-78.25542959 44.23348002 -78.9983923 39.27694016 -77.28515625 34.0859375 C-71.14219689 20.42905788 -56.5387133 13.6213959 -43.24951172 8.50927734 C-29.69789028 3.61113517 -14.44798511 -0.1489483 0 0 Z " fill="#2D80BC" transform="translate(467.9375,432.9375)"/>
<path d="M0 0 C0.66 0.66 1.32 1.32 2 2 C2.33 0.35 2.66 -1.3 3 -3 C8.94 -3 14.88 -3 21 -3 C21.09072902 4.53713871 21.1639612 12.07407101 21.20724869 19.61162472 C21.2280352 23.11246632 21.25618599 26.61291173 21.30175781 30.11352539 C21.35393628 34.14733466 21.37301886 38.18073428 21.390625 42.21484375 C21.41127014 43.45894516 21.43191528 44.70304657 21.45318604 45.98484802 C21.45576859 56.07611878 19.20149843 63.80910206 12.1328125 71.203125 C4.6980117 77.46687659 -3.28973273 78.43415472 -12.6875 78.5 C-14.00548584 78.50966797 -14.00548584 78.50966797 -15.35009766 78.51953125 C-24.32696671 78.34414249 -31.42311705 75.67509799 -39 71 C-38.39254603 66.14036821 -36.27241033 62.2594482 -34 58 C-31.30157903 58.61408267 -29.13881195 59.37579115 -26.5625 60.5 C-19.53225784 63.46010196 -11.83549542 64.39472561 -4.5625 61.75 C-1.85095009 59.89820982 -0.46643731 58.93287462 1 56 C1.52791172 53.00850023 1.81221382 50.03048049 2 47 C1.34 47.598125 0.68 48.19625 0 48.8125 C-6.13334925 53.28473383 -12.43788789 55.07160365 -20 54 C-28.55745552 51.97228134 -34.59411934 48.47857256 -39.27734375 40.9453125 C-43.45660766 33.06271508 -44.51718892 23.89559827 -42.28125 15.20703125 C-39.19805868 6.98933181 -34.89173565 2.10839916 -27.18359375 -2.01953125 C-18.28723234 -6.01414076 -8.09336821 -5.19197206 0 0 Z " fill="#3A682F" transform="translate(361,690)"/>
<path d="M0 0 C5.23243905 2.95413337 8.58734049 6.27067072 11.5 11.5 C12.03625 12.38171875 12.5725 13.2634375 13.125 14.171875 C14.90472601 18.47962091 14.99489772 22.13449434 14.9375 26.75 C14.92992676 27.5946582 14.92235352 28.43931641 14.91455078 29.30957031 C14.67691992 38.31179061 12.4159094 45.34104176 6.21484375 52.03125 C0.5244159 56.90505609 -5.95543825 58.65598004 -13.3125 58.75 C-15.11654297 58.78867187 -15.11654297 58.78867187 -16.95703125 58.828125 C-22.51038508 58.31381219 -25.59551155 56.40448845 -29.5 52.5 C-29.83 61.41 -30.16 70.32 -30.5 79.5 C-36.77 79.5 -43.04 79.5 -49.5 79.5 C-49.5 52.77 -49.5 26.04 -49.5 -1.5 C-43.56 -1.5 -37.62 -1.5 -31.5 -1.5 C-31.17 0.15 -30.84 1.8 -30.5 3.5 C-30.02949219 3.15066406 -29.55898438 2.80132813 -29.07421875 2.44140625 C-28.45160156 1.98636719 -27.82898438 1.53132812 -27.1875 1.0625 C-26.57261719 0.61003906 -25.95773437 0.15757812 -25.32421875 -0.30859375 C-18.10793016 -5.02158737 -7.38500318 -3.41059596 0 0 Z " fill="#3083BF" transform="translate(619.5,688.5)"/>
<path d="M0 0 C6.27 0 12.54 0 19 0 C24.66030954 11.0826288 29.88922255 22.27111226 34.85449219 33.68041992 C35.99508338 36.30120287 37.14151772 38.91936472 38.2890625 41.53710938 C42.0924692 50.22771873 45.85159084 58.93745547 49.5625 67.66796875 C49.90933838 68.47752518 50.25617676 69.2870816 50.61352539 70.12117004 C53 75.76768484 53 75.76768484 53 78 C46.4 78 39.8 78 33 78 C29 70 29 70 27 63 C15.45 63 3.9 63 -8 63 C-8.33 64.65 -8.66 66.3 -9 68 C-10.22896369 71.38088404 -11.62523806 74.67396305 -13 78 C-19.6 78 -26.2 78 -33 78 C-29.62476028 67.87428084 -29.62476028 67.87428084 -28.18164062 64.51953125 C-27.85664078 63.75922607 -27.53164093 62.9989209 -27.1967926 62.21557617 C-26.85341354 61.42256104 -26.51003448 60.6295459 -26.15625 59.8125 C-25.79027206 58.95954346 -25.42429413 58.10658691 -25.04722595 57.2277832 C-23.86850481 54.48358545 -22.6844442 51.74173183 -21.5 49 C-20.68738544 47.11206349 -19.87496773 45.22404224 -19.06274414 43.3359375 C-2.89433061 5.78866123 -2.89433061 5.78866123 0 0 Z " fill="#39662C" transform="translate(263,668)"/>
<path d="M0 0 C4.26525149 1.58683527 6.77437948 4.80534556 9.625 8.1875 C10.15134033 8.80898926 10.67768066 9.43047852 11.2199707 10.07080078 C32.80089408 36.0329606 48.0619505 68.96511719 49 103 C49.03254883 103.97308105 49.06509766 104.94616211 49.09863281 105.94873047 C49.76076221 128.10331254 46.80860039 147.96030863 40 169 C39.67 169 39.34 169 39 169 C38.98541748 168.02353516 38.97083496 167.04707031 38.95581055 166.04101562 C38.89679348 162.33544522 38.81959358 158.63041895 38.73754883 154.92529297 C38.70477597 153.33716823 38.67660485 151.74894028 38.65356445 150.16064453 C38.48909601 139.10976466 37.39112307 128.80327571 35 118 C34.85563004 117.33214478 34.71126007 116.66428955 34.56251526 115.97619629 C27.51771621 83.44554873 11.15798732 55.50068201 -11 31 C-11.59941406 30.32839844 -12.19882812 29.65679687 -12.81640625 28.96484375 C-19.24524762 22.14930515 -27.22597383 16.18268412 -35 11 C-35 10.34 -35 9.68 -35 9 C-34.38068604 8.9906543 -33.76137207 8.98130859 -33.12329102 8.97167969 C-30.26893965 8.91740737 -27.41612892 8.83387663 -24.5625 8.75 C-23.58861328 8.73582031 -22.61472656 8.72164063 -21.61132812 8.70703125 C-13.83107857 8.44682223 -7.39129012 6.97771816 -1.4375 1.75 C-0.963125 1.1725 -0.48875 0.595 0 0 Z " fill="#2E7DB9" transform="translate(651,252)"/>
<path d="M0 0 C7.15615075 4.4412943 10.39232727 11.1769818 13 19 C13.96044396 29.20274892 12.33486159 38.21999742 5.875 46.375 C-0.15622002 52.73258474 -8.40356867 56.06361181 -17.05541992 56.39453125 C-27.42890458 56.5816516 -34.94513718 55.06226236 -43.14453125 48.20703125 C-49.26304013 41.95971166 -52.14641937 34.04677707 -52.4375 25.375 C-52.04901954 16.56526559 -49.17401119 9.36150828 -43 3 C-30.38860729 -7.36017871 -14.08213368 -8.00748778 0 0 Z " fill="#3082BF" transform="translate(693,691)"/>
<path d="M0 0 C6.27 0 12.54 0 19 0 C19 5.28 19 10.56 19 16 C23.62 16 28.24 16 33 16 C33 20.62 33 25.24 33 30 C28.05 30 23.1 30 18 30 C18.11360633 34.10477592 18.24036599 38.20840664 18.375 42.3125 C18.4059375 43.47974609 18.436875 44.64699219 18.46875 45.84960938 C18.50742187 46.96787109 18.54609375 48.08613281 18.5859375 49.23828125 C18.63306885 50.7857605 18.63306885 50.7857605 18.68115234 52.36450195 C18.82674629 55.22843236 18.82674629 55.22843236 21 58 C23.66653905 58.36460453 23.66653905 58.36460453 26.625 58.1875 C27.62789062 58.16042969 28.63078125 58.13335938 29.6640625 58.10546875 C30.82035156 58.05326172 30.82035156 58.05326172 32 58 C32.53341184 59.57914015 33.05125763 61.16354387 33.5625 62.75 C33.85253906 63.63171875 34.14257812 64.5134375 34.44140625 65.421875 C35.02788985 68.12872239 35.12177406 69.48015284 34 72 C27.36002149 75.57537305 20.42539999 75.9826372 13 75 C7.2705294 72.88199665 3.91335982 69.36058207 1 64 C-0.17942085 60.46173745 -0.11289189 57.65851274 -0.09765625 53.92578125 C-0.0962413 53.2419487 -0.09482635 52.55811615 -0.09336853 51.8535614 C-0.08777876 49.67316278 -0.07522822 47.49286749 -0.0625 45.3125 C-0.05748367 43.83268378 -0.052921 42.35286594 -0.04882812 40.87304688 C-0.03781271 37.24866443 -0.02055512 33.6243423 0 30 C-2.97 30 -5.94 30 -9 30 C-9 25.71 -9 21.42 -9 17 C-6.03 17 -3.06 17 0 17 C0 11.39 0 5.78 0 0 Z " fill="#3283BF" transform="translate(767,672)"/>
<path d="M0 0 C4.42555962 3.36342531 8.3740361 7.3096083 10.1484375 12.6328125 C10.91643159 21.68417145 11.11244741 30.227738 5.1484375 37.6328125 C-1.44651247 43.16281919 -7.79916744 44.1137558 -16.26171875 44.03515625 C-21.67126468 43.42886329 -25.05146601 41.46518157 -28.8515625 37.6328125 C-34.77498668 30.05368421 -35.62880303 23.1286642 -34.8515625 13.6328125 C-33.13793903 6.9638702 -28.42239522 2.42728535 -22.8515625 -1.3671875 C-14.80821825 -4.73076782 -7.41922916 -4.55566703 0 0 Z " fill="#FBFCFD" transform="translate(528.8515625,686.3671875)"/>
<path d="M0 0 C0 0.66 0 1.32 0 2 C-1.59328125 2.45439453 -1.59328125 2.45439453 -3.21875 2.91796875 C-10.87487961 5.16631218 -17.40076042 7.38053229 -24 12 C-24.66 12 -25.32 12 -26 12 C-26.66599316 15.02664218 -27.10453228 17.89539131 -27 21 C-22.05155349 28.18322881 -12.20494967 31.1933 -4 33 C16.5366576 35.98112772 44.19134592 37.47693891 62 25 C64.17170232 22.5243574 64.94036951 21.3503291 65.5 18.0625 C64.8112412 13.84385236 63.33125148 12.63724075 60 10 C53.381013 5.67772174 45.55388483 3.9945651 38 2 C38 1.34 38 0.68 38 0 C51.03262421 1.06388769 67.44252342 4.67182543 76.75 14.5 C78.51124228 16.87090307 79.01796608 18.08803377 79.625 21.0625 C78.41287561 26.75948462 75.47466202 29.88104811 70.8125 33.125 C48.61366526 46.97215587 15.53320268 47.48795037 -9.70239258 42.51416016 C-21.94298254 39.65368845 -33.7468009 35.87979866 -41 25 C-41.60741175 21.55800007 -41.60380008 19.15539188 -39.9609375 16.01171875 C-31.71439827 5.12205798 -13.27435699 -0.90506979 0 0 Z " fill="#3082BD" transform="translate(473,445)"/>
<path d="M0 0 C0 3.64936603 -0.83872839 4.44206115 -3 7.3125 C-20.67577913 32.03013882 -29.45080227 60.80569258 -29.4375 91.125 C-29.43823517 91.86033966 -29.43897034 92.59567932 -29.43972778 93.353302 C-29.36683434 121.37422246 -22.26136505 146.47389454 -9 171 C-8.43539062 172.05703125 -7.87078125 173.1140625 -7.2890625 174.203125 C-2.0886728 183.52964549 4.25810889 192.59626046 12 200 C11.67 200.66 11.34 201.32 11 202 C6.97974534 198.35496911 2.98092151 194.68794213 -1 191 C-2.10214844 189.98292969 -2.10214844 189.98292969 -3.2265625 188.9453125 C-25.29959057 167.7806395 -40.47299568 136.62450621 -41.33984375 105.99609375 C-41.39637228 103.08068724 -41.42248878 100.16588958 -41.4375 97.25 C-41.44394531 96.5566153 -41.45039063 95.86323059 -41.45703125 95.14883423 C-41.65226797 60.80089946 -26.88305195 32.57752525 -5.41992188 6.71923828 C-3.58718227 4.5001612 -1.78939158 2.25411221 0 0 Z " fill="#91BE47" transform="translate(330,324)"/>
<path d="M0 0 C0 5.61 0 11.22 0 17 C-2.041875 17.12375 -2.041875 17.12375 -4.125 17.25 C-8.67620475 17.76523073 -11.46279412 18.96810925 -15 22 C-18.09742284 26.09730893 -18.4659553 29.72220517 -18.51171875 34.70703125 C-18.52966995 35.43242599 -18.54762115 36.15782074 -18.56611633 36.90519714 C-18.62002217 39.20757342 -18.65405001 41.50974479 -18.6875 43.8125 C-18.72069068 45.37958568 -18.75518196 46.9466444 -18.79101562 48.51367188 C-18.87817206 52.34247413 -18.93840292 56.17036106 -19 60 C-25.27 60 -31.54 60 -38 60 C-38 40.53 -38 21.06 -38 1 C-32.06 1 -26.12 1 -20 1 C-20 3.64 -20 6.28 -20 9 C-19.34 9 -18.68 9 -18 9 C-17.79375 8.4225 -17.5875 7.845 -17.375 7.25 C-13.33522697 0.63946231 -7.14372337 0 0 0 Z " fill="#3B6A30" transform="translate(434,686)"/>
<path d="M0 0 C0 5.61 0 11.22 0 17 C-2.289375 17.12375 -2.289375 17.12375 -4.625 17.25 C-9.4005573 17.73633681 -12.31614184 18.76539284 -16 22 C-19.09301385 26.10129277 -19.46594129 29.72067925 -19.51171875 34.70703125 C-19.52966995 35.43242599 -19.54762115 36.15782074 -19.56611633 36.90519714 C-19.62002217 39.20757342 -19.65405001 41.50974479 -19.6875 43.8125 C-19.72069068 45.37958568 -19.75518196 46.9466444 -19.79101562 48.51367188 C-19.87817206 52.34247413 -19.93840292 56.17036106 -20 60 C-25.94 60 -31.88 60 -38 60 C-38 40.53 -38 21.06 -38 1 C-32.06 1 -26.12 1 -20 1 C-19.67 3.31 -19.34 5.62 -19 8 C-18.54109375 7.59007812 -18.0821875 7.18015625 -17.609375 6.7578125 C-16.99578125 6.21898437 -16.3821875 5.68015625 -15.75 5.125 C-15.14671875 4.59132813 -14.5434375 4.05765625 -13.921875 3.5078125 C-8.85592128 -0.46669591 -7.30328546 0 0 0 Z " fill="#3081BF" transform="translate(755,686)"/>
<path d="M0 0 C6.27 0 12.54 0 19 0 C19 19.47 19 38.94 19 59 C12.73 59 6.46 59 0 59 C0 39.53 0 20.06 0 0 Z " fill="#3F6E34" transform="translate(443,687)"/>
<path d="M0 0 C3.93900704 1.95784965 6.36713576 4.95078957 8 9 C8.67747827 14.14410824 8.77966092 19.30089178 6.375 24 C3.35295762 27.81731669 0.89723205 29.53644287 -3.953125 30.3125 C-9.06546028 30.62470368 -12.04078093 29.4067699 -16 26 C-19.90592719 20.5875009 -19.7966488 15.4607342 -19 9 C-14.79275425 0.43524973 -9.09868151 -1.42208047 0 0 Z " fill="#F8FBFC" transform="translate(679,702)"/>
<path d="M0 0 C4.40802625 2.16394016 7.23139226 4.38196867 9 9 C9.66198068 14.34488104 9.67332051 18.60348339 7.3125 23.5 C3.23973324 27.90299109 0.48301616 29.19482602 -5.5 29.5 C-9.54286504 29.39117456 -10.70223572 29.21876559 -14.0625 26.75 C-18.34835475 20.66685133 -19.14221563 15.41472177 -18 8 C-13.75617703 0.31946149 -8.33979438 -0.92237357 0 0 Z " fill="#F8FBFC" transform="translate(607,702)"/>
<path d="M0 0 C4.3189609 2.05742561 7.226545 4.49943966 9 9 C9.77703075 14.55021965 9.33963698 19.36760032 6 24 C0.85718813 27.83189904 -2.63293378 28.80851635 -9 28 C-12.65910484 26.20496744 -14.54823878 24.64752442 -16.875 21.3125 C-18.31893989 17.0608992 -18.71653219 13.44249957 -18 9 C-14.1201328 1.24026561 -8.44190093 -1.55850479 0 0 Z " fill="#F9FAF8" transform="translate(355,701)"/>
<path d="M0 0 C2.65683189 1.49748707 4.84652751 2.84652751 7 5 C7.49783265 8.4029067 7.53664866 11.60122512 7 15 C4.34462922 18.40432151 2.94362218 19.62150515 -1.2265625 20.43359375 C-5.31599268 20.65926465 -7.47462263 20.32836086 -11 18.125 C-14.27837542 14.64172611 -14.46991301 11.92039643 -14.40234375 7.265625 C-14 5 -14 5 -11.5 1.9375 C-7.82650511 -0.55770407 -4.29993035 -0.95743976 0 0 Z " fill="#3C6B31" transform="translate(456,660)"/>
<path d="M0 0 C3.34265205 1.20706879 3.94704566 1.92056849 6 5 C6.79049034 12.00148588 6.79049034 12.00148588 3.625 16 C1 18 1 18 -1 18 C-1 18.66 -1 19.32 -1 20 C2.04386724 20.08226668 4.07175348 19.97608217 7 19 C7 19.99 7 20.98 7 22 C4.29120665 23.35439668 1.99066732 23.06501451 -1 23 C-1.20625 22.38125 -1.4125 21.7625 -1.625 21.125 C-3.54095405 18.1639801 -5.71223468 18.07355602 -9 17 C-11.89472223 14.49124073 -12.01185646 12.91700476 -12.5625 9.0625 C-12.41937868 5.41631399 -11.97538392 4.97186733 -9.375 2 C-5.72777543 -0.16131826 -4.14086911 -0.63013226 0 0 Z " fill="#818281" transform="translate(482,781)"/>
<path d="M0 0 C2.78223111 1.39111555 2.99685455 2.94746506 4.1640625 5.8046875 C4.56367188 6.78050781 4.96328125 7.75632812 5.375 8.76171875 C5.7875 9.78910156 6.2 10.81648437 6.625 11.875 C7.04523438 12.89464844 7.46546875 13.91429687 7.8984375 14.96484375 C11 22.60797991 11 22.60797991 11 26 C4.4 26 -2.2 26 -9 26 C-7.875 18.125 -7.875 18.125 -6.15234375 14.16015625 C-5.79462891 13.32548828 -5.43691406 12.49082031 -5.06835938 11.63085938 C-4.69517578 10.78330078 -4.32199219 9.93574219 -3.9375 9.0625 C-3.37192383 7.75055664 -3.37192383 7.75055664 -2.79492188 6.41210938 C-1.87077032 4.27135324 -0.9390249 2.13426353 0 0 Z " fill="#F6F8F1" transform="translate(272,690)"/>
<path d="M0 0 C3.4375 2 3.4375 2 6 5 C7.09982034 9.16420526 6.43556351 12.14702145 4.5 15.9375 C1.6095252 18.32214171 -0.26468051 19.02567188 -3.96484375 19.25390625 C-7.85810432 18.76818276 -9.55776754 16.91876563 -12 14 C-13.03328381 11.2537858 -13.37101775 8.91513946 -13 6 C-9.49012542 0.31158257 -6.57974723 -0.65797472 0 0 Z " fill="#FAF9F8" transform="translate(759,781)"/>
<path d="M0 0 C10.34052758 -0.36930456 10.34052758 -0.36930456 13.34375 1.3125 C15 3 15 3 15.25 6.1875 C15.1675 7.115625 15.085 8.04375 15 9 C13.02 9.99 13.02 9.99 11 11 C11.66 11.94875 12.32 12.8975 13 13.875 C15 17 15 17 15 19 C14.01 19 13.02 19 12 19 C11.38125 18.030625 10.7625 17.06125 10.125 16.0625 C8.31781611 12.79320392 8.31781611 12.79320392 5.25 12.125 C4.5075 12.08375 3.765 12.0425 3 12 C3 14.31 3 16.62 3 19 C2.01 19 1.02 19 0 19 C0 12.73 0 6.46 0 0 Z " fill="#919090" transform="translate(770,781)"/>
<path d="M0 0 C10.22459016 -0.48688525 10.22459016 -0.48688525 13.6875 1.6875 C15.26859128 4.47323226 15.55187114 5.8464506 15 9 C14.46375 9.66 13.9275 10.32 13.375 11 C12.92125 11.66 12.4675 12.32 12 13 C12.70957237 15.73398135 12.70957237 15.73398135 14 18 C10.83884224 16.63016497 10.0072908 16.0109362 8 13 C5.43717258 12.27034634 5.43717258 12.27034634 3 12 C3 14.31 3 16.62 3 19 C2.01 19 1.02 19 0 19 C0 12.73 0 6.46 0 0 Z " fill="#828381" transform="translate(396,781)"/>
<path d="M0 0 C10.22459016 -0.48688525 10.22459016 -0.48688525 13.6875 1.6875 C15.27965567 4.49272666 15.63416883 5.82915585 15 9 C13.5 11.3125 13.5 11.3125 11 13 C8.24146096 13.33165641 5.79575714 13.18638381 3 13 C3 14.98 3 16.96 3 19 C2.01 19 1.02 19 0 19 C0 12.73 0 6.46 0 0 Z " fill="#AFAEAD" transform="translate(728,781)"/>
<path d="M0 0 C10.46832332 -0.36947023 10.46832332 -0.36947023 12.84375 1.28125 C14.70470674 4.04753705 14.18268024 6.77264913 14 10 C13.01 10.33 12.02 10.66 11 11 C11.99 13.31 12.98 15.62 14 18 C12.1875 17.75 12.1875 17.75 10 17 C9.525625 16.34 9.05125 15.68 8.5625 15 C7.12113694 12.74724544 7.12113694 12.74724544 4.3125 12.25 C3.549375 12.1675 2.78625 12.085 2 12 C2 13.98 2 15.96 2 18 C1.34 18 0.68 18 0 18 C0 12.06 0 6.12 0 0 Z " fill="#828181" transform="translate(648,781)"/>
<path d="M0 0 C10.4893259 -0.3702115 10.4893259 -0.3702115 12.83203125 1.328125 C14.65454876 3.93694605 14.37891308 5.90554322 14 9 C12.5 11.375 12.5 11.375 11 13 C11.495 13.61875 11.99 14.2375 12.5 14.875 C14 17 14 17 14 19 C11.00675737 17.9024777 10.15389099 17.32317108 8.75 14.375 C8.5025 13.59125 8.255 12.8075 8 12 C6.02 12 4.04 12 2 12 C2 13.98 2 15.96 2 18 C1.34 18 0.68 18 0 18 C0 12.06 0 6.12 0 0 Z " fill="#8F8F8E" transform="translate(272,781)"/>
<path d="M0 0 C0.99 0 1.98 0 3 0 C4.17374173 2.43431639 5.33915763 4.87204182 6.5 7.3125 C6.83386719 8.00279297 7.16773438 8.69308594 7.51171875 9.40429688 C10 14.66015625 10 14.66015625 10 18 C9.01 17.67 8.02 17.34 7 17 C6.67 16.34 6.34 15.68 6 15 C3.64400765 14.53248212 3.64400765 14.53248212 0.9375 14.375 C0.01839844 14.30023437 -0.90070312 14.22546875 -1.84765625 14.1484375 C-2.55792969 14.09945312 -3.26820313 14.05046875 -4 14 C-4.33 15.65 -4.66 17.3 -5 19 C-5.99 19 -6.98 19 -8 19 C-6.00386732 12.2813095 -3.2708579 6.19265192 0 0 Z " fill="#808180" transform="translate(674,781)"/>
<path d="M0 0 C0.99 0 1.98 0 3 0 C4.33957921 2.78871177 5.67058435 5.58143062 7 8.375 C7.3815625 9.1690625 7.763125 9.963125 8.15625 10.78125 C8.5171875 11.54179688 8.878125 12.30234375 9.25 13.0859375 C9.75273437 14.1385376 9.75273437 14.1385376 10.265625 15.21240234 C11 17 11 17 11 19 C10.01 19 9.02 19 8 19 C7.77570313 18.35546875 7.55140625 17.7109375 7.3203125 17.046875 C6.17110544 14.75611148 6.17110544 14.75611148 3.6171875 14.390625 C2.25980469 14.32101562 2.25980469 14.32101562 0.875 14.25 C-0.03507813 14.19328125 -0.94515625 14.1365625 -1.8828125 14.078125 C-2.58148438 14.05234375 -3.28015625 14.0265625 -4 14 C-4.33 15.32 -4.66 16.64 -5 18 C-5.99 17.67 -6.98 17.34 -8 17 C-6.85700498 14.35290709 -5.71075628 11.70730948 -4.5625 9.0625 C-4.23701172 8.30775391 -3.91152344 7.55300781 -3.57617188 6.77539062 C-1.11328125 1.11328125 -1.11328125 1.11328125 0 0 Z " fill="#858786" transform="translate(236,781)"/>
<path d="M0 0 C1.87988281 0.29321289 1.87988281 0.29321289 4 1 C5.44646308 3.49015086 6.61997797 5.81129001 7.75 8.4375 C8.06582031 9.13166016 8.38164063 9.82582031 8.70703125 10.54101562 C11 15.66793493 11 15.66793493 11 18 C10.01 18 9.02 18 8 18 C7.67 17.01 7.34 16.02 7 15 C3.7 14.67 0.4 14.34 -3 14 C-3.66 15.65 -4.32 17.3 -5 19 C-5.66 19 -6.32 19 -7 19 C-6.33392561 14.59041892 -4.73375271 10.73427814 -2.9375 6.6875 C-2.65583984 6.04232422 -2.37417969 5.39714844 -2.08398438 4.73242188 C-1.3937257 3.15301642 -0.69746802 1.57623507 0 0 Z " fill="#888888" transform="translate(520,781)"/>
<path d="M0 0 C1.9375 1.6875 1.9375 1.6875 3 4 C2.92857348 7.49989972 2.66021066 9.29263143 0.25 11.875 C-2.45388592 13.22694296 -4.0147484 13.45926948 -7 13 C-8.8125 12 -8.8125 12 -10 10 C-10.47093626 7.24329993 -10.5093856 4.7529716 -10 2 C-7.07721596 -1.70968744 -4.28951039 -1.36899268 0 0 Z " fill="#F9F9F9" transform="translate(483,784)"/>
<path d="M0 0 C4.62 0 9.24 0 14 0 C14 0.66 14 1.32 14 2 C10.37 2 6.74 2 3 2 C3 3.98 3 5.96 3 8 C6.3 8 9.6 8 13 8 C13 8.99 13 9.98 13 11 C9.7 11 6.4 11 3 11 C3 12.65 3 14.3 3 16 C6.63 16 10.26 16 14 16 C14 16.99 14 17.98 14 19 C9.38 19 4.76 19 0 19 C0 12.73 0 6.46 0 0 Z " fill="#919190" transform="translate(416,781)"/>
<path d="M0 0 C3.4375 2 3.4375 2 6 5 C7.09982034 9.16420526 6.43556351 12.14702145 4.5 15.9375 C1.6095252 18.32214171 -0.26468051 19.02567188 -3.96484375 19.25390625 C-7.85810432 18.76818276 -9.55776754 16.91876563 -12 14 C-13.03328381 11.2537858 -13.37101775 8.91513946 -13 6 C-9.49012542 0.31158257 -6.57974723 -0.65797472 0 0 Z M-9 4.5625 C-10.41970326 8.02302669 -9.86301515 10.41516784 -9 14 C-7.06268472 16.36410488 -7.06268472 16.36410488 -3.5625 16.3125 C-0.16764372 16.24161047 -0.16764372 16.24161047 1.9375 15 C3.74093769 11.60529375 3.36262436 8.80755575 3 5 C-0.96671946 2.35552036 -5.01028656 1.44553638 -9 4.5625 Z " fill="#8F8F90" transform="translate(759,781)"/>
<path d="M0 0 C0.99 0 1.98 0 3 0 C5.04296875 2.3359375 5.04296875 2.3359375 7.1875 5.375 C7.90292969 6.37273438 8.61835937 7.37046875 9.35546875 8.3984375 C11 11 11 11 11 13 C11.66 13 12.32 13 13 13 C13 8.71 13 4.42 13 0 C13.66 0 14.32 0 15 0 C15 5.94 15 11.88 15 18 C8.83279604 16.45819901 7.43384377 12.21680111 4 7 C3.67 10.96 3.34 14.92 3 19 C2.01 19 1.02 19 0 19 C0 12.73 0 6.46 0 0 Z " fill="#8C8B8A" transform="translate(689,781)"/>
<path d="M0 0 C0 0.99 0 1.98 0 3 C-4.62609082 3.57273959 -9.25255624 4.14231474 -13.87939453 4.70898438 C-15.45274328 4.90212873 -17.02598691 5.09613141 -18.59912109 5.29101562 C-20.86268336 5.57127981 -23.12660795 5.84843669 -25.390625 6.125 C-26.09181458 6.21249512 -26.79300415 6.29999023 -27.51544189 6.39013672 C-30.71857961 6.77857346 -33.76511853 7 -37 7 C-37 5.68 -37 4.36 -37 3 C-24.546108 0.83634555 -12.64318262 -0.44218385 0 0 Z " fill="#4891C9" transform="translate(474,421)"/>
<path d="M0 0 C0 3.64936603 -0.83872839 4.44206115 -3 7.3125 C-9.6206227 16.51153966 -15.24317437 26.2732742 -19 37 C-20.65 35.35 -22.3 33.7 -24 32 C-18.66777761 22.8479674 -12.19196326 14.85776654 -5.43603516 6.73535156 C-3.59630633 4.51216345 -1.79357534 2.26051587 0 0 Z " fill="#90C148" transform="translate(330,324)"/>
<path d="M0 0 C0.66 0.33 1.32 0.66 2 1 C2 1.99 2 2.98 2 4 C-0.64 4 -3.28 4 -6 4 C-6.33 4.99 -6.66 5.98 -7 7 C-4.98177083 7.45572917 -2.96354167 7.91145833 -0.9453125 8.3671875 C1 9 1 9 3 11 C3.375 13.4375 3.375 13.4375 3 16 C0.71537467 18.54823595 -0.64975169 18.96426038 -4.0625 19.3125 C-7 19 -7 19 -10 17 C-10 16.01 -10 15.02 -10 14 C-7.03 14.33 -4.06 14.66 -1 15 C-1 14.01 -1 13.02 -1 12 C-5.455 10.02 -5.455 10.02 -10 8 C-10.21917317 5.29686424 -10.32851983 3.56041618 -8.9375 1.1875 C-5.97227476 -0.62989611 -3.39514655 -0.24691975 0 0 Z " fill="#8F8D8C" transform="translate(720,781)"/>
<path d="M0 0 C0.99 0 1.98 0 3 0 C3.06058594 0.91523437 3.12117188 1.83046875 3.18359375 2.7734375 C3.26738281 3.96195313 3.35117187 5.15046875 3.4375 6.375 C3.51871094 7.55835938 3.59992188 8.74171875 3.68359375 9.9609375 C3.81084936 12.91518901 3.81084936 12.91518901 5 15 C6.99954746 15.04254356 9.00041636 15.04080783 11 15 C12.94090826 13.05909174 12.39919435 9.52706098 12.5625 6.9375 C12.64628906 5.64714844 12.73007812 4.35679687 12.81640625 3.02734375 C12.87699219 2.02832031 12.93757813 1.02929688 13 0 C13.99 0 14.98 0 16 0 C16.10823773 2.24893954 16.18569645 4.49937575 16.25 6.75 C16.29640625 8.00296875 16.3428125 9.2559375 16.390625 10.546875 C16 14 16 14 14.23828125 16.42578125 C10.59049296 18.99132869 8.38848352 18.48760928 4 18 C1.32568511 16.18836733 1.04079641 15.12238923 0 12 C-0.068991 9.93854893 -0.08467727 7.87498599 -0.0625 5.8125 C-0.05347656 4.72582031 -0.04445313 3.63914062 -0.03515625 2.51953125 C-0.02355469 1.68808594 -0.01195312 0.85664062 0 0 Z " fill="#888888" transform="translate(374,781)"/>
<path d="M0 0 C0.99 0.33 1.98 0.66 3 1 C3 1.66 3 2.32 3 3 C2.07767578 2.93039062 2.07767578 2.93039062 1.13671875 2.859375 C-3.81399874 2.51544552 -3.81399874 2.51544552 -8.125 4.5625 C-9.34312612 7.95585133 -8.7352039 10.52449066 -8 14 C-3.545 14.99 -3.545 14.99 1 16 C1 13.69 1 11.38 1 9 C1.99 9 2.98 9 4 9 C4 11.64 4 14.28 4 17 C0.33211192 19.34744837 -2.71902154 19.60083908 -7 19 C-10.01704172 16.43230492 -11.56255124 14.82448141 -12.48046875 10.99609375 C-12.74851975 7.1781781 -12.09159963 5.13323582 -9.9375 2 C-6.30586782 -0.47260063 -4.3132535 -0.47925039 0 0 Z " fill="#7D7F7B" transform="translate(262,781)"/>
<path d="M0 0 C0.99 0.66 1.98 1.32 3 2 C3 2.66 3 3.32 3 4 C2.30132812 3.97679687 1.60265625 3.95359375 0.8828125 3.9296875 C-0.48230469 3.90261719 -0.48230469 3.90261719 -1.875 3.875 C-2.77992188 3.85179687 -3.68484375 3.82859375 -4.6171875 3.8046875 C-7.18806994 3.75675164 -7.18806994 3.75675164 -9 6 C-9.34490322 10.05261287 -9.30163882 11.54754176 -7 15 C-4.56306689 15.36416047 -4.56306689 15.36416047 -1.875 15.1875 C-0.50988281 15.14689453 -0.50988281 15.14689453 0.8828125 15.10546875 C1.58148438 15.07066406 2.28015625 15.03585937 3 15 C3 15.66 3 16.32 3 17 C-0.41540279 19.10178633 -3.02251415 19.56821226 -7 19 C-10.56719805 15.98769943 -12.79134449 13.87789961 -13.3125 9.1875 C-12.92835642 5.2692355 -11.70743683 3.78706733 -9 1 C-5.98131566 -0.50934217 -3.32702771 -0.17510672 0 0 Z " fill="#878785" transform="translate(313,781)"/>
<path d="M0 0 C0.66 0 1.32 0 2 0 C2.07347656 1.37285156 2.07347656 1.37285156 2.1484375 2.7734375 C2.22320312 3.96195313 2.29796875 5.15046875 2.375 6.375 C2.44460938 7.55835938 2.51421875 8.74171875 2.5859375 9.9609375 C2.70217346 13.10562319 2.70217346 13.10562319 5 15 C7.54190002 15.2500773 7.54190002 15.2500773 10 15 C11.94090826 13.05909174 11.39919435 9.52706098 11.5625 6.9375 C11.64628906 5.64714844 11.73007812 4.35679687 11.81640625 3.02734375 C11.87699219 2.02832031 11.93757813 1.02929688 12 0 C12.99 0 13.98 0 15 0 C15.08119503 2.24940295 15.13927819 4.49964871 15.1875 6.75 C15.22230469 8.00296875 15.25710938 9.2559375 15.29296875 10.546875 C14.98511883 14.17539942 14.69889417 15.5930392 12 18 C9.84375 18.53125 9.84375 18.53125 7.5 18.5 C6.7265625 18.5103125 5.953125 18.520625 5.15625 18.53125 C3 18 3 18 1.23046875 16.421875 C-0.46156341 13.091526 -0.29064047 10.4630569 -0.1875 6.75 C-0.16042969 5.48671875 -0.13335937 4.2234375 -0.10546875 2.921875 C-0.07066406 1.95765625 -0.03585937 0.9934375 0 0 Z " fill="#878787" transform="translate(494,781)"/>
<path d="M0 0 C0.99 0 1.98 0 3 0 C3.06058594 0.99902344 3.12117188 1.99804688 3.18359375 3.02734375 C3.26738281 4.31769531 3.35117187 5.60804688 3.4375 6.9375 C3.51871094 8.22527344 3.59992188 9.51304687 3.68359375 10.83984375 C3.64919188 13.86023957 3.64919188 13.86023957 5 15 C8 15.16666667 8 15.16666667 11 15 C12.87824891 13.12175109 12.39102397 9.96064724 12.5625 7.4375 C12.64628906 6.23996094 12.73007812 5.04242187 12.81640625 3.80859375 C12.87699219 2.88175781 12.93757813 1.95492187 13 1 C13.66 1 14.32 1 15 1 C15.08097324 3.27024968 15.13917704 5.54132075 15.1875 7.8125 C15.22230469 9.07707031 15.25710938 10.34164062 15.29296875 11.64453125 C15 15 15 15 13.76953125 16.91796875 C11.55924146 18.2695146 10.08483576 18.46553552 7.5 18.5 C6.33984375 18.54640625 6.33984375 18.54640625 5.15625 18.59375 C3 18 3 18 1.23046875 15.89453125 C-0.23799501 12.44014507 -0.30081359 9.92684842 -0.1875 6.1875 C-0.16042969 5.02605469 -0.13335937 3.86460937 -0.10546875 2.66796875 C-0.07066406 1.78753906 -0.03585937 0.90710938 0 0 Z " fill="#858684" transform="translate(321,781)"/>
<path d="M0 0 C4.95 0 9.9 0 15 0 C15 0.99 15 1.98 15 3 C13.02 3 11.04 3 9 3 C9 8.28 9 13.56 9 19 C8.01 19 7.02 19 6 19 C6 13.72 6 8.44 6 3 C4.02 3 2.04 3 0 3 C0 2.01 0 1.02 0 0 Z " fill="#A8A9A9" transform="translate(629,781)"/>
<path d="M0 0 C4.95 0 9.9 0 15 0 C15 0.99 15 1.98 15 3 C13.02 3 11.04 3 9 3 C9 8.28 9 13.56 9 19 C8.01 19 7.02 19 6 19 C6 13.72 6 8.44 6 3 C4.02 3 2.04 3 0 3 C0 2.01 0 1.02 0 0 Z " fill="#8E8E8E" transform="translate(356,781)"/>
<path d="M0 0 C4.95 0 9.9 0 15 0 C15 0.99 15 1.98 15 3 C13.02 3 11.04 3 9 3 C9 8.28 9 13.56 9 19 C8.01 19 7.02 19 6 19 C6 13.72 6 8.44 6 3 C4.02 3 2.04 3 0 3 C0 2.01 0 1.02 0 0 Z " fill="#909193" transform="translate(559,781)"/>
<path d="M0 0 C0.99 0 1.98 0 3 0 C3 8.91 3 17.82 3 27 C2.01 27 1.02 27 0 27 C0 18.09 0 9.18 0 0 Z " fill="#97999A" transform="translate(609,778)"/>
<path d="M0 0 C2.64 0 5.28 0 8 0 C8 0.33 8 0.66 8 1 C6.02 1 4.04 1 2 1 C2 3.97 2 6.94 2 10 C5.35433109 9.05066101 8.69246505 8.10251165 12 7 C12 5.68 12 4.36 12 3 C12.66 3 13.32 3 14 3 C14.34982212 6.14839906 14.24633224 7.62023779 12.5 10.3125 C8.87174359 12.76157308 6.32159775 12.28810652 2 12 C2 13.98 2 15.96 2 18 C1.34 18 0.68 18 0 18 C0 12.06 0 6.12 0 0 Z " fill="#878685" transform="translate(729,782)"/>
<path d="M0 0 C0.99 0 1.98 0 3 0 C3.9765625 1.79036458 4.953125 3.58072917 5.9296875 5.37109375 C6.91410024 7.16618315 6.91410024 7.16618315 9 8 C9.28875 7.236875 9.5775 6.47375 9.875 5.6875 C11 3 11 3 13 0 C13.99 0 14.98 0 16 0 C14.93934702 3.00518345 13.80847571 5.26697326 11.9375 7.875 C9.77944679 11.35573099 9.32360548 13.95493144 9 18 C8.34 18 7.68 18 7 18 C6.938125 16.5459375 6.938125 16.5459375 6.875 15.0625 C6.27883158 10.56830731 3.90530883 7.5105516 1.27734375 3.91796875 C0 2 0 2 0 0 Z " fill="#808081" transform="translate(576,781)"/>
<path d="M0 0 C0.33 0 0.66 0 1 0 C1.309375 1.134375 1.61875 2.26875 1.9375 3.4375 C2.62924531 6.78775099 2.62924531 6.78775099 4 8 C8.65065613 7.55206891 8.65065613 7.55206891 13 6 C13.33 6.99 13.66 7.98 14 9 C12.35 9.66 10.7 10.32 9 11 C9 11.66 9 12.32 9 13 C12.04386724 13.08226668 14.07175348 12.97608217 17 12 C17 12.99 17 13.98 17 15 C14.29120665 16.35439668 11.99066732 16.06501451 9 16 C8.79375 15.38125 8.5875 14.7625 8.375 14.125 C7.1138767 11.6909061 7.1138767 11.6909061 4 11 C1 10 1 10 -0.4375 8.25 C-1.18279994 5.26880023 -0.67432816 2.9670439 0 0 Z " fill="#8B8C8B" transform="translate(472,788)"/>
<path d="M0 0 C3.33511388 2.9901021 5.21521119 5.89498574 7 10 C7 10.66 7 11.32 7 12 C6.01 12 5.02 12 4 12 C3.77570313 11.35546875 3.55140625 10.7109375 3.3203125 10.046875 C2.17110544 7.75611148 2.17110544 7.75611148 -0.3828125 7.390625 C-1.28773438 7.34421875 -2.19265625 7.2978125 -3.125 7.25 C-4.03507813 7.19328125 -4.94515625 7.1365625 -5.8828125 7.078125 C-6.58148438 7.05234375 -7.28015625 7.0265625 -8 7 C-8.33 8.32 -8.66 9.64 -9 11 C-9.99 10.67 -10.98 10.34 -12 10 C-10.68 7.03 -9.36 4.06 -8 1 C-7.34 1 -6.68 1 -6 1 C-6 2.32 -6 3.64 -6 5 C-3.69 5 -1.38 5 1 5 C0.67 3.35 0.34 1.7 0 0 Z " fill="#7D807F" transform="translate(240,788)"/>
<path d="M0 0 C-0.63671875 1.890625 -0.63671875 1.890625 -2 4 C-4.64453125 5.046875 -4.64453125 5.046875 -7.8125 5.75 C-8.85019531 5.99234375 -9.88789063 6.2346875 -10.95703125 6.484375 C-13.71606237 6.95188733 -16.21066285 7.10311782 -19 7 C-18.625 4.625 -18.625 4.625 -17 2 C-11.55008824 -0.00468103 -5.74886266 -0.24995055 0 0 Z " fill="#3D88C2" transform="translate(438,425)"/>
<path d="M0 0 C3.125 0.25 3.125 0.25 5.0625 1.5 C6.125 3.25 6.125 3.25 5.9375 5.375 C5.125 7.25 5.125 7.25 3.125 8.25 C0.7920134 8.29022391 -1.54206666 8.29320247 -3.875 8.25 C-3.91741723 5.91705225 -3.91592937 3.58297433 -3.875 1.25 C-2.875 0.25 -2.875 0.25 0 0 Z " fill="#EEEDED" transform="translate(653.875,782.75)"/>
<path d="M0 0 C0 0.99 0 1.98 0 3 C-2.06172613 3.33808686 -4.1244203 3.67027361 -6.1875 4 C-7.91033203 4.2784375 -7.91033203 4.2784375 -9.66796875 4.5625 C-12.50415393 4.93489477 -15.14719564 5.08596021 -18 5 C-17.67 4.34 -17.34 3.68 -17 3 C-17.99 2.34 -18.98 1.68 -20 1 C-13.34362157 -0.23839599 -6.7528064 -0.09139136 0 0 Z " fill="#4490C9" transform="translate(474,433)"/>
<path d="M0 0 C4.62 0 9.24 0 14 0 C14 0.66 14 1.32 14 2 C12.02 2 10.04 2 8 2 C8 7.61 8 13.22 8 19 C7.34 19 6.68 19 6 19 C6 13.39 6 7.78 6 2 C4.02 2 2.04 2 0 2 C0 1.34 0 0.68 0 0 Z " fill="#7D7D7D" transform="translate(789,781)"/>
<path d="M0 0 C2.97 0.33 5.94 0.66 9 1 C9 1.33 9 1.66 9 2 C7.02 2.33 5.04 2.66 3 3 C2.67 5.31 2.34 7.62 2 10 C4.31 10 6.62 10 9 10 C8.01 11.485 8.01 11.485 7 13 C5.35 12.67 3.7 12.34 2 12 C2 13.98 2 15.96 2 18 C1.34 18 0.68 18 0 18 C0 12.06 0 6.12 0 0 Z " fill="#797878" transform="translate(648,781)"/>
<path d="M0 0 C2.64 0 5.28 0 8 0 C8.625 2.375 8.625 2.375 9 5 C7 7 7 7 3.375 7.125 C2.26125 7.08375 1.1475 7.0425 0 7 C0 4.69 0 2.38 0 0 Z " fill="#F6F4F3" transform="translate(773,784)"/>
<path d="M0 0 C2.64 0 5.28 0 8 0 C8.625 2.375 8.625 2.375 9 5 C7 7 7 7 3.375 7.125 C2.26125 7.08375 1.1475 7.0425 0 7 C0 4.69 0 2.38 0 0 Z " fill="#F9F8F6" transform="translate(399,784)"/>
<path d="M0 0 C0 0.66 0 1.32 0 2 C-2.53564068 2.89741202 -5.07577061 3.76781604 -7.625 4.625 C-8.33785156 4.88023437 -9.05070312 5.13546875 -9.78515625 5.3984375 C-14.53866936 6.96840513 -17.26687235 7.1948573 -22 5 C-15.71336924 0.80891282 -7.47932645 -0.50995408 0 0 Z " fill="#3487C1" transform="translate(473,445)"/>
<path d="M0 0 C7.09267526 0.69536032 14.17883178 1.90657245 21 4 C21.33 4.66 21.66 5.32 22 6 C21.67 6.66 21.34 7.32 21 8 C16.42600291 7.21511292 12.09842491 5.84473878 7.6875 4.4375 C6.94693359 4.20353516 6.20636719 3.96957031 5.44335938 3.72851562 C3.62816595 3.15468028 1.81397994 2.57765989 0 2 C0 1.34 0 0.68 0 0 Z " fill="#3081BB" transform="translate(511,445)"/>
<path d="M0 0 C0.99 0 1.98 0 3 0 C3 6.27 3 12.54 3 19 C2.01 19 1.02 19 0 19 C0 12.73 0 6.46 0 0 Z " fill="#8D9090" transform="translate(552,781)"/>
<path d="M0 0 C0.99 0 1.98 0 3 0 C3 5.94 3 11.88 3 18 C2.01 18.33 1.02 18.66 0 19 C0 12.73 0 6.46 0 0 Z " fill="#8D8D8B" transform="translate(292,781)"/>
<path d="M0 0 C3.375 -0.125 3.375 -0.125 7 0 C7.66 0.66 8.32 1.32 9 2 C8.75 4.0625 8.75 4.0625 8 6 C5.29120665 7.35439668 2.99066732 7.06501451 0 7 C0 4.69 0 2.38 0 0 Z " fill="#F9F8F8" transform="translate(275,784)"/>
<path d="M0 0 C0.66 0 1.32 0 2 0 C2 5.28 2 10.56 2 16 C4.97 16 7.94 16 11 16 C11 16.66 11 17.32 11 18 C7.37 18 3.74 18 0 18 C0 12.06 0 6.12 0 0 Z " fill="#7B7C7C" transform="translate(343,781)"/>
<path d="M0 0 C0.66 0 1.32 0 2 0 C2 5.28 2 10.56 2 16 C4.97 16 7.94 16 11 16 C11 16.66 11 17.32 11 18 C7.37 18 3.74 18 0 18 C0 12.06 0 6.12 0 0 Z " fill="#787A79" transform="translate(536,781)"/>
<path d="M0 0 C2.31 0 4.62 0 7 0 C7.625 2.375 7.625 2.375 8 5 C6 7 6 7 2.875 7.125 C1.451875 7.063125 1.451875 7.063125 0 7 C0 4.69 0 2.38 0 0 Z " fill="#FCFBFB" transform="translate(732,784)"/>
<path d="M0 0 C0 3.71541654 -0.99617186 4.68142489 -3.1875 7.625 C-6.52504691 12.23786971 -9.35896569 16.96134468 -12 22 C-12.99 20.68 -13.98 19.36 -15 18 C-14.16855469 17.03578125 -13.33710938 16.0715625 -12.48046875 15.078125 C-11.38274647 13.80214013 -10.28509388 12.52609531 -9.1875 11.25 C-8.64029297 10.61578125 -8.09308594 9.9815625 -7.52929688 9.328125 C-4.91608821 6.28730038 -2.3441871 3.25718629 0 0 Z " fill="#98C759" transform="translate(330,324)"/>
<path d="M0 0 C0.33 0 0.66 0 1 0 C1.5625 3.0625 1.5625 3.0625 1 7 C-1.6658823 9.84141364 -4.61416323 12.07609621 -8 14 C-8.99 14 -9.98 14 -11 14 C-9.35504034 11.85349184 -7.70907674 9.70776711 -6.0625 7.5625 C-5.59392578 6.95083984 -5.12535156 6.33917969 -4.64257812 5.70898438 C-1.11328125 1.11328125 -1.11328125 1.11328125 0 0 Z " fill="#327EB6" transform="translate(332,271)"/>
<path d="M0 0 C8.3984375 -0.1953125 8.3984375 -0.1953125 11 0 C11.66 0.66 12.32 1.32 13 2 C11 4 11 4 9.125 4.046875 C8.42375 3.94890625 7.7225 3.8509375 7 3.75 C5.948125 3.61851562 5.948125 3.61851562 4.875 3.484375 C3 3 3 3 1 1 C1.33 4.96 1.66 8.92 2 13 C2.33 13 2.66 13 3 13 C3 14.98 3 16.96 3 19 C2.01 19 1.02 19 0 19 C0 12.73 0 6.46 0 0 Z " fill="#9D9D9C" transform="translate(396,781)"/>
<path d="M0 0 C0.66 0 1.32 0 2 0 C2 5.94 2 11.88 2 18 C0.68 17.67 -0.64 17.34 -2 17 C-3.25 14.4375 -3.25 14.4375 -4 12 C-2.68 12.33 -1.36 12.66 0 13 C0 8.71 0 4.42 0 0 Z " fill="#747473" transform="translate(702,781)"/>
<path d="M0 0 C0.33 0 0.66 0 1 0 C1.25 2.3125 1.25 2.3125 1 5 C-1.28462533 7.54823595 -2.64975169 7.96426038 -6.0625 8.3125 C-9 8 -9 8 -12 6 C-12 5.01 -12 4.02 -12 3 C-9.03 3.33 -6.06 3.66 -3 4 C-2.34 3.01 -1.68 2.02 -1 1 C-0.67 0.67 -0.34 0.34 0 0 Z " fill="#908F8F" transform="translate(722,792)"/>
<path d="M0 0 C4.39941328 -0.43994133 6.56794445 -0.25137777 10.4375 2 C13.08108572 5.09492963 13.36828701 5.53308727 13.375 9.3125 C13.25125 10.529375 13.1275 11.74625 13 13 C12.01 13.495 12.01 13.495 11 14 C10.89042969 13.37351562 10.78085937 12.74703125 10.66796875 12.1015625 C10.50941406 11.28429687 10.35085938 10.46703125 10.1875 9.625 C10.03667969 8.81289063 9.88585937 8.00078125 9.73046875 7.1640625 C9.12455058 4.64179359 9.12455058 4.64179359 6 3 C4.0103005 2.60986284 2.00980131 2.26797351 0 2 C0 1.34 0 0.68 0 0 Z " fill="#767878" transform="translate(752,781)"/>
<path d="M0 0 C3.63 0 7.26 0 11 0 C10.34 1.32 9.68 2.64 9 4 C9.30378052 6.68993053 9.30378052 6.68993053 10 9 C9.44570313 8.57847656 8.89140625 8.15695312 8.3203125 7.72265625 C7.59585938 7.17480469 6.87140625 6.62695312 6.125 6.0625 C5.40570312 5.51722656 4.68640625 4.97195313 3.9453125 4.41015625 C2.05642921 2.96035376 2.05642921 2.96035376 0 2 C0 1.34 0 0.68 0 0 Z " fill="#408BC0" transform="translate(616,261)"/>
<path d="M0 0 C11.52164009 -0.18451025 11.52164009 -0.18451025 17 1 C16.67 1.66 16.34 2.32 16 3 C10.72 3 5.44 3 0 3 C0 2.01 0 1.02 0 0 Z " fill="#277FBD" transform="translate(509,421)"/>
<path d="M0 0 C0.99 0.33 1.98 0.66 3 1 C-1.62 5.62 -6.24 10.24 -11 15 C-11.33 14.01 -11.66 13.02 -12 12 C-8.04 8.04 -4.08 4.08 0 0 Z " fill="#2579B4" transform="translate(321,301)"/>
<path d="M0 0 C3.3 0 6.6 0 10 0 C10 0.33 10 0.66 10 1 C7.69 1.33 5.38 1.66 3 2 C2.67 6.95 2.34 11.9 2 17 C1.34 17 0.68 17 0 17 C0 11.39 0 5.78 0 0 Z " fill="#7C7C7C" transform="translate(272,782)"/>
<path d="M0 0 C4.29 0 8.58 0 13 0 C13 0.66 13 1.32 13 2 C11.02 2 9.04 2 7 2 C7 7.28 7 12.56 7 18 C6.67 18 6.34 18 6 18 C6 12.72 6 7.44 6 2 C4.02 2 2.04 2 0 2 C0 1.34 0 0.68 0 0 Z " fill="#757677" transform="translate(630,781)"/>
<path d="M0 0 C0 0.99 0 1.98 0 3 C-5.61 3 -11.22 3 -17 3 C-16.67 2.34 -16.34 1.68 -16 1 C-10.66645094 -0.11115605 -5.43087408 -0.11083416 0 0 Z " fill="#217DC1" transform="translate(474,421)"/>
<path d="M0 0 C0.99 0 1.98 0 3 0 C3 2.64 3 5.28 3 8 C-0.63423209 10.32590854 -3.77088331 10.16265833 -8 10 C-7.34 9.01 -6.68 8.02 -6 7 C-2.875 6.8125 -2.875 6.8125 0 7 C0 4.69 0 2.38 0 0 Z " fill="#919393" transform="translate(263,790)"/>
<path d="M0 0 C2.475 0.99 2.475 0.99 5 2 C4.67 3.32 4.34 4.64 4 6 C-1.5 6.36666667 -1.5 6.36666667 -3.875 4.625 C-5 3 -5 3 -5 1 C-4.34 1 -3.68 1 -3 1 C-3 1.66 -3 2.32 -3 3 C-2.01 2.01 -1.02 1.02 0 0 Z " fill="#F3F1EE" transform="translate(715,791)"/>
<path d="M0 0 C2.64 0.33 5.28 0.66 8 1 C8 2.65 8 4.3 8 6 C4.7 5.34 1.4 4.68 -2 4 C-1.34 2.68 -0.68 1.36 0 0 Z " fill="#3487C1" transform="translate(560,427)"/>
<path d="M0 0 C0.66 0.33 1.32 0.66 2 1 C0.04761147 3.00612399 -1.91137822 5.00492433 -3.875 7 C-4.43058594 7.57234375 -4.98617187 8.1446875 -5.55859375 8.734375 C-7.00134404 10.19450782 -8.4974374 11.60149298 -10 13 C-10.66 13 -11.32 13 -12 13 C-10.53438126 9.60312324 -8.63352456 7.39277314 -6 4.8125 C-4.948125 3.77029297 -4.948125 3.77029297 -3.875 2.70703125 C-2 1 -2 1 0 0 Z " fill="#91C145" transform="translate(548,349)"/>
<path d="M0 0 C0.66 0 1.32 0 2 0 C2.05384521 2.29141286 2.09272087 4.58318188 2.125 6.875 C2.14820313 8.15117188 2.17140625 9.42734375 2.1953125 10.7421875 C2 14 2 14 0 16 C-0.99 15.67 -1.98 15.34 -3 15 C-2.34 14.34 -1.68 13.68 -1 13 C-0.53513282 9.87803664 -0.53513282 9.87803664 -0.375 6.375 C-0.30023438 5.18648437 -0.22546875 3.99796875 -0.1484375 2.7734375 C-0.09945313 1.85820313 -0.05046875 0.94296875 0 0 Z " fill="#747776" transform="translate(334,782)"/>
<path d="M0 0 C2.15377564 2.62198774 3.40072174 4.64404172 4 8 C1.69 8 -0.62 8 -3 8 C-2.45276317 4.62537285 -1.9451 2.91765 0 0 Z " fill="#E7E6E5" transform="translate(675,785)"/>
<path d="M0 0 C2.89932357 2.39509338 3.50168276 4.31245243 4 8 C1.69 8 -0.62 8 -3 8 C-1.125 2.25 -1.125 2.25 0 0 Z " fill="#EBEAEA" transform="translate(521,785)"/>
<path d="M0 0 C2.15377564 2.62198774 3.40072174 4.64404172 4 8 C1.69 8 -0.62 8 -3 8 C-2.45276317 4.62537285 -1.9451 2.91765 0 0 Z " fill="#EDECEC" transform="translate(237,785)"/>
<path d="M0 0 C3.92734211 3.77024843 7.44406161 7.88470051 11 12 C10.67 12.66 10.34 13.32 10 14 C8.31864767 12.62189158 6.65529519 11.22179993 5 9.8125 C4.071875 9.03519531 3.14375 8.25789062 2.1875 7.45703125 C0 5 0 5 -0.3125 2.19921875 C-0.209375 1.47347656 -0.10625 0.74773438 0 0 Z " fill="#9DCB5F" transform="translate(331,512)"/>
<path d="M0 0 C0.99 0 1.98 0 3 0 C1.54997977 4.10839064 -0.3979134 7.50344613 -3 11 C-3.66 11 -4.32 11 -5 11 C-5.33 10.01 -5.66 9.02 -6 8 C-5.34 8 -4.68 8 -4 8 C-3.71125 7.236875 -3.4225 6.47375 -3.125 5.6875 C-2 3 -2 3 0 0 Z " fill="#8E8D8E" transform="translate(589,781)"/>
<path d="M0 0 C0.66 0 1.32 0 2 0 C2.33 5.28 2.66 10.56 3 16 C2.34 16 1.68 16 1 16 C-0.50156874 12.99686252 -0.09281204 10.20932478 -0.0625 6.875 C-0.05347656 5.59367188 -0.04445313 4.31234375 -0.03515625 2.9921875 C-0.02355469 2.00476563 -0.01195312 1.01734375 0 0 Z " fill="#797978" transform="translate(494,781)"/>
<path d="M0 0 C5.91260345 -0.25706972 11.23918159 0.7017874 17 2 C17 2.33 17 2.66 17 3 C12.05 3.33 7.1 3.66 2 4 C2.33 3.34 2.66 2.68 3 2 C2.01 1.34 1.02 0.68 0 0 Z " fill="#4591C9" transform="translate(454,434)"/>
<path d="M0 0 C0.33 0 0.66 0 1 0 C1 3.63 1 7.26 1 11 C1.66 11 2.32 11 3 11 C2.25 18.75 2.25 18.75 0 21 C0 14.07 0 7.14 0 0 Z " fill="#2677B3" transform="translate(691,396)"/>
<path d="M0 0 C0.99 0.33 1.98 0.66 3 1 C3 1.66 3 2.32 3 3 C2.07767578 2.96519531 2.07767578 2.96519531 1.13671875 2.9296875 C0.32847656 2.91164063 -0.47976563 2.89359375 -1.3125 2.875 C-2.51326172 2.84019531 -2.51326172 2.84019531 -3.73828125 2.8046875 C-6.28388576 2.84182678 -6.28388576 2.84182678 -9 5 C-9.66 4.34 -10.32 3.68 -11 3 C-7.47960938 -0.37957499 -4.75529428 -0.34583958 0 0 Z " fill="#868483" transform="translate(262,781)"/>
<path d="M0 0 C1.134375 0.020625 2.26875 0.04125 3.4375 0.0625 C2.9375 2 2.9375 2 1.4375 4.0625 C-1.25908452 4.75040422 -3.7642019 4.88196464 -6.5625 5.0625 C-4.14811644 0.07277397 -4.14811644 0.07277397 0 0 Z " fill="#2C7DBF" transform="translate(434.5625,424.9375)"/>
<path d="M0 0 C0.33 0 0.66 0 1 0 C1 2.97 1 5.94 1 9 C2.32 9 3.64 9 5 9 C5 9.66 5 10.32 5 11 C4.01 11 3.02 11 2 11 C2 12.98 2 14.96 2 17 C1.34 17 0.68 17 0 17 C0 11.39 0 5.78 0 0 Z " fill="#7B7B78" transform="translate(771,782)"/>
<path d="M0 0 C1.48484412 0.39595843 2.9628831 0.81750706 4.4375 1.25 C5.26121094 1.48203125 6.08492187 1.7140625 6.93359375 1.953125 C7.61550781 2.29859375 8.29742188 2.6440625 9 3 C9.33 4.32 9.66 5.64 10 7 C6.37 5.68 2.74 4.36 -1 3 C-0.67 2.01 -0.34 1.02 0 0 Z " fill="#7E7E7C" transform="translate(712,787)"/>
<path d="M0 0 C1.77007714 -0.08114106 3.54122098 -0.13925505 5.3125 -0.1875 C6.29863281 -0.22230469 7.28476562 -0.25710938 8.30078125 -0.29296875 C11 0 11 0 12.85546875 1.38671875 C14 3 14 3 14 5 C12.22694336 4.74412595 10.45655392 4.46972261 8.6875 4.1875 C7.20830078 3.96126953 7.20830078 3.96126953 5.69921875 3.73046875 C2.87300731 2.96563295 1.8040872 2.24741238 0 0 Z " fill="#989797" transform="translate(272,781)"/>
<path d="M0 0 C4.30764815 1.56641751 8.06171464 3.68336156 12 6 C10.68 6.99 9.36 7.98 8 9 C6.66368764 7.6905332 5.33102075 6.37734515 4 5.0625 C3.2575 4.33160156 2.515 3.60070312 1.75 2.84765625 C0 1 0 1 0 0 Z " fill="#4B92C6" transform="translate(339,568)"/>
<path d="M0 0 C4.0081803 3.67416528 6.52591615 7.14346504 9 12 C9 12.66 9 13.32 9 14 C5.06360824 12.68786941 4.71346403 11.17198478 2.8125 7.5625 C2.01779297 6.07943359 2.01779297 6.07943359 1.20703125 4.56640625 C0 2 0 2 0 0 Z " fill="#4590C2" transform="translate(693,291)"/>
<path d="M0 0 C2.00155665 0.25196901 3.98151819 0.66266228 5.953125 1.08984375 C5.953125 1.41984375 5.953125 1.74984375 5.953125 2.08984375 C4.2825 2.52296875 4.2825 2.52296875 2.578125 2.96484375 C-1.93462643 4.36535281 -3.34241812 6.401948 -6.046875 10.08984375 C-6.42427808 6.78756684 -6.10372834 5.19881265 -4.546875 2.21484375 C-2.046875 0.08984375 -2.046875 0.08984375 0 0 Z " fill="#9A9795" transform="translate(752.046875,781.91015625)"/>
<path d="M0 0 C0.33 0.66 0.66 1.32 1 2 C1.66 2.33 2.32 2.66 3 3 C1.68 5.64 0.36 8.28 -1 11 C-1.99 11 -2.98 11 -4 11 C-3.52269162 9.5410574 -3.04308958 8.08286504 -2.5625 6.625 C-2.29566406 5.81289063 -2.02882813 5.00078125 -1.75390625 4.1640625 C-1 2 -1 2 0 0 Z " fill="#8A8988" transform="translate(673,782)"/>
<path d="M0 0 C4.37934119 0.51958285 8.68803391 1.05675742 13 2 C12.67 2.99 12.34 3.98 12 5 C6.06 3.515 6.06 3.515 0 2 C0 1.34 0 0.68 0 0 Z " fill="#4493C4" transform="translate(511,445)"/>
<path d="M0 0 C0.99 0.99 1.98 1.98 3 3 C1.54744301 6.82946843 -0.42895561 8.12050295 -4 10 C-3.71125 9.46375 -3.4225 8.9275 -3.125 8.375 C-1.83288192 5.64719516 -0.91441408 2.87387282 0 0 Z " fill="#3D8CC4" transform="translate(559,751)"/>
<path d="M0 0 C0.66 0.99 1.32 1.98 2 3 C1.525625 3.804375 1.05125 4.60875 0.5625 5.4375 C-1.29359618 9.66939929 -1.70559978 13.43172078 -2 18 C-2.33 18 -2.66 18 -3 18 C-3.33278764 11.18401613 -3.24201565 6.07877934 0 0 Z " fill="#5B9FC9" transform="translate(348,469)"/>
<path d="M0 0 C1.79133978 -0.05391993 3.58313899 -0.09275571 5.375 -0.125 C6.37273437 -0.14820313 7.37046875 -0.17140625 8.3984375 -0.1953125 C11 0 11 0 13 2 C12.34 2.66 11.68 3.32 11 4 C3.73998479 3.65428499 3.73998479 3.65428499 1.24609375 1.44921875 C0.83488281 0.97097656 0.42367188 0.49273438 0 0 Z " fill="#979695" transform="translate(396,781)"/>
<path d="M0 0 C0 0.66 0 1.32 0 2 C-2.97 2.66 -5.94 3.32 -9 4 C-9.33 3.01 -9.66 2.02 -10 1 C-6.52674819 -0.1577506 -3.63932552 -0.06866652 0 0 Z " fill="#519ACA" transform="translate(473,445)"/>
<path d="M0 0 C0.66 0 1.32 0 2 0 C3.2890625 1.75 3.2890625 1.75 4.625 4 C5.07101562 4.7425 5.51703125 5.485 5.9765625 6.25 C6.31429687 6.8275 6.65203125 7.405 7 8 C6.01 8.33 5.02 8.66 4 9 C0 3.375 0 3.375 0 0 Z " fill="#818281" transform="translate(693,785)"/>
<path d="M0 0 C3.48331435 3.01887244 4.79157144 5.56909529 6 10 C5.01 10 4.02 10 3 10 C2.01 6.7 1.02 3.4 0 0 Z " fill="#797C7B" transform="translate(525,789)"/>
<path d="M0 0 C6.625 -0.25 6.625 -0.25 10 2 C10 2.66 10 3.32 10 4 C7.03 3.67 4.06 3.34 1 3 C0.67 2.01 0.34 1.02 0 0 Z " fill="#979696" transform="translate(306,781)"/>
<path d="M0 0 C2.1875 0.3125 2.1875 0.3125 4 1 C4 2.98 4 4.96 4 7 C3.34 5.68 2.68 4.36 2 3 C0.68 3.99 -0.64 4.98 -2 6 C-2.33 5.01 -2.66 4.02 -3 3 C-1.75 1.4375 -1.75 1.4375 0 0 Z " fill="#4A743F" transform="translate(361,734)"/>
<path d="M0 0 C1.32 0.66 2.64 1.32 4 2 C0.535 4.97 0.535 4.97 -3 8 C-3.66 7.67 -4.32 7.34 -5 7 C-3.35 4.69 -1.7 2.38 0 0 Z " fill="#438CB8" transform="translate(326,278)"/>
<path d="M0 0 C0.33 0 0.66 0 1 0 C1.66 3.3 2.32 6.6 3 10 C1.68 9.34 0.36 8.68 -1 8 C-1.04241723 5.66705225 -1.04092937 3.33297433 -1 1 C-0.67 0.67 -0.34 0.34 0 0 Z " fill="#7F7F7D" transform="translate(748,787)"/>
<path d="M0 0 C6.52307692 -0.36923077 6.52307692 -0.36923077 8.9375 1.5 C9.288125 1.995 9.63875 2.49 10 3 C6.49064814 3 3.43515002 2.62457273 0 2 C0 1.34 0 0.68 0 0 Z " fill="#828080" transform="translate(752,781)"/>
<path d="M0 0 C2.31 0 4.62 0 7 0 C7.33 0.99 7.66 1.98 8 3 C5.36 3 2.72 3 0 3 C0 2.01 0 1.02 0 0 Z " fill="#237AB6" transform="translate(509,433)"/>
<path d="M0 0 C-4.95 2.475 -4.95 2.475 -10 5 C-9.67 3.68 -9.34 2.36 -9 1 C-5.3931275 -0.64661571 -3.8148779 -1.27162597 0 0 Z " fill="#E2EACE" transform="translate(580,328)"/>
<path d="M0 0 C0.66 0 1.32 0 2 0 C6 5.41176471 6 5.41176471 6 8 C2.83884224 6.63016497 2.0072908 6.0109362 0 3 C0 2.01 0 1.02 0 0 Z " fill="#878787" transform="translate(280,792)"/>
<path d="M0 0 C6.75 -0.125 6.75 -0.125 9 1 C9 1.99 9 2.98 9 4 C4.545 3.01 4.545 3.01 0 2 C0 1.34 0 0.68 0 0 Z " fill="#828183" transform="translate(713,781)"/>
<path d="M0 0 C3.3125 -0.25 3.3125 -0.25 7 0 C8.9375 2 8.9375 2 10 4 C8.68 4 7.36 4 6 4 C5.67 3.01 5.34 2.02 5 1 C3.35 1 1.7 1 0 1 C0 0.67 0 0.34 0 0 Z " fill="#8B8A8B" transform="translate(652,781)"/>
<path d="M0 0 C2.64 0 5.28 0 8 0 C6.515 1.98 6.515 1.98 5 4 C1.125 2.25 1.125 2.25 0 0 Z " fill="#3285C3" transform="translate(450,435)"/>
<path d="M0 0 C1.2065625 0.0309375 1.2065625 0.0309375 2.4375 0.0625 C1.4475 0.3925 0.4575 0.7225 -0.5625 1.0625 C-0.5625 1.7225 -0.5625 2.3825 -0.5625 3.0625 C-4.5225 3.0625 -8.4825 3.0625 -12.5625 3.0625 C-12.5625 2.7325 -12.5625 2.4025 -12.5625 2.0625 C-11.60537109 1.97162109 -11.60537109 1.97162109 -10.62890625 1.87890625 C-9.38947266 1.75322266 -9.38947266 1.75322266 -8.125 1.625 C-7.30128906 1.54378906 -6.47757813 1.46257812 -5.62890625 1.37890625 C-2.92478859 0.96485421 -2.90505598 0.07085502 0 0 Z " fill="#529ACB" transform="translate(528.5625,421.9375)"/>
<path d="M0 0 C0 0.99 0 1.98 0 3 C-2.70879335 4.35439668 -5.00933268 4.06501451 -8 4 C-8 3.34 -8 2.68 -8 2 C-2.25 0 -2.25 0 0 0 Z " fill="#7D8081" transform="translate(489,800)"/>
<path d="M0 0 C1.98 0 3.96 0 6 0 C5.67 1.32 5.34 2.64 5 4 C3.02 4 1.04 4 -1 4 C-0.67 2.68 -0.34 1.36 0 0 Z " fill="#4C93C5" transform="translate(516,433)"/>
<path d="M0 0 C3.9492568 0.55105909 7.34920174 1.38935371 11 3 C9.4375 4.25 9.4375 4.25 7 5 C4.42998985 3.93237266 2.3469597 2.53455057 0 1 C0 0.67 0 0.34 0 0 Z " fill="#E6EFD9" transform="translate(417,330)"/>
<path d="M0 0 C0.66 0.33 1.32 0.66 2 1 C0.75453595 4.73639216 -0.63404953 5.18756513 -4 7 C-4.66 6.34 -5.32 5.68 -6 5 C-4.02 3.35 -2.04 1.7 0 0 Z " fill="#3487BE" transform="translate(331,292)"/>
<path d="M0 0 C0.33 0.66 0.66 1.32 1 2 C1.66 2.33 2.32 2.66 3 3 C1.68 4.65 0.36 6.3 -1 8 C-1.93065133 5.39417629 -2.14917407 4.35801776 -1.0625 1.75 C-0.711875 1.1725 -0.36125 0.595 0 0 Z " fill="#8C8C8C" transform="translate(235,782)"/>
<path d="M0 0 C0 3.39593478 -0.52165948 4.06619881 -2.5 6.6875 C-2.9640625 7.31011719 -3.428125 7.93273437 -3.90625 8.57421875 C-4.2671875 9.04472656 -4.628125 9.51523437 -5 10 C-5.66 9.34 -6.32 8.68 -7 8 C-4.69 5.36 -2.38 2.72 0 0 Z " fill="#B6D789" transform="translate(330,324)"/>
<path d="M0 0 C2.31 0.33 4.62 0.66 7 1 C7 1.99 7 2.98 7 4 C4.69 3.67 2.38 3.34 0 3 C0 2.01 0 1.02 0 0 Z " fill="#9A9A99" transform="translate(751,796)"/>
<path d="M0 0 C2.9719385 1.12451727 5.33440687 2.22293791 8 4 C5.69 4 3.38 4 1 4 C0.67 2.68 0.34 1.36 0 0 Z " fill="#838382" transform="translate(710,795)"/>
<path d="M0 0 C0.33 1.32 0.66 2.64 1 4 C1.66 4 2.32 4 3 4 C2.67 4.99 2.34 5.98 2 7 C0.62437146 5.71034824 -0.70766393 4.37310707 -2 3 C-2 2.34 -2 1.68 -2 1 C-1.34 0.67 -0.68 0.34 0 0 Z " fill="#398BBF" transform="translate(647,730)"/>
<path d="M0 0 C1.32 0 2.64 0 4 0 C3.34 1.65 2.68 3.3 2 5 C1.01 4.34 0.02 3.68 -1 3 C-0.67 2.01 -0.34 1.02 0 0 Z " fill="#3984BF" transform="translate(349,575)"/>
<path d="M0 0 C1.65 0 3.3 0 5 0 C5 0.99 5 1.98 5 3 C3.02 3 1.04 3 -1 3 C-0.67 2.01 -0.34 1.02 0 0 Z " fill="#1F7ABF" transform="translate(469,433)"/>
</svg>
